<svg xmlns="http://www.w3.org/2000/svg" id="save-67761479" width="429.58203125" class="classDiagram" style="max-width: 429.58203125px;" viewBox="0 0 429.58203125 465" role="graphics-document document" aria-roledescription="class" height="465"><style>#save-67761479{font-family:Arial,Helvetica,DejaVu Sans,sans-serif;font-size:16px;fill:#000000;}@keyframes edge-animation-frame{from{stroke-dashoffset:0;}}@keyframes dash{to{stroke-dashoffset:0;}}#save-67761479 .edge-animation-slow{stroke-dasharray:9,5!important;stroke-dashoffset:900;animation:dash 50s linear infinite;stroke-linecap:round;}#save-67761479 .edge-animation-fast{stroke-dasharray:9,5!important;stroke-dashoffset:900;animation:dash 20s linear infinite;stroke-linecap:round;}#save-67761479 .error-icon{fill:#552222;}#save-67761479 .error-text{fill:#552222;stroke:#552222;}#save-67761479 .edge-thickness-normal{stroke-width:1px;}#save-67761479 .edge-thickness-thick{stroke-width:3.5px;}#save-67761479 .edge-pattern-solid{stroke-dasharray:0;}#save-67761479 .edge-thickness-invisible{stroke-width:0;fill:none;}#save-67761479 .edge-pattern-dashed{stroke-dasharray:3;}#save-67761479 .edge-pattern-dotted{stroke-dasharray:2;}#save-67761479 .marker{fill:#666;stroke:#666;}#save-67761479 .marker.cross{stroke:#666;}#save-67761479 svg{font-family:Arial,Helvetica,DejaVu Sans,sans-serif;font-size:16px;}#save-67761479 p{margin:0;}#save-67761479 g.classGroup text{fill:#999;stroke:none;font-family:Arial,Helvetica,DejaVu Sans,sans-serif;font-size:10px;}#save-67761479 g.classGroup text .title{font-weight:bolder;}#save-67761479 .cluster-label text{fill:#333;}#save-67761479 .cluster-label span{color:#333;}#save-67761479 .cluster-label span p{background-color:transparent;}#save-67761479 .cluster rect{fill:hsl(0, 0%, 98.9215686275%);stroke:#707070;stroke-width:1px;}#save-67761479 .cluster text{fill:#333;}#save-67761479 .cluster span{color:#333;}#save-67761479 .nodeLabel,#save-67761479 .edgeLabel{color:#111111;}#save-67761479 .noteLabel .nodeLabel,#save-67761479 .noteLabel .edgeLabel{color:#fff;}#save-67761479 .edgeLabel .label rect{fill:#eee;}#save-67761479 .label text{fill:#111111;}#save-67761479 .labelBkg{background:#eee;}#save-67761479 .edgeLabel .label span{background:#eee;}#save-67761479 .classTitle{font-weight:bolder;}#save-67761479 .node rect,#save-67761479 .node circle,#save-67761479 .node ellipse,#save-67761479 .node polygon,#save-67761479 .node path{fill:#eee;stroke:#999;stroke-width:1;}#save-67761479 .divider{stroke:#999;stroke-width:1;}#save-67761479 g.clickable{cursor:pointer;}#save-67761479 g.classGroup rect{fill:#eee;stroke:#999;}#save-67761479 g.classGroup line{stroke:#999;stroke-width:1;}#save-67761479 .classLabel .box{stroke:none;stroke-width:0;fill:#eee;opacity:0.5;}#save-67761479 .classLabel .label{fill:#999;font-size:10px;}#save-67761479 .relation{stroke:#666;stroke-width:1;fill:none;}#save-67761479 .dashed-line{stroke-dasharray:3;}#save-67761479 .dotted-line{stroke-dasharray:1 2;}#save-67761479 [id$="-compositionStart"],#save-67761479 .composition{fill:#666!important;stroke:#666!important;stroke-width:1;}#save-67761479 [id$="-compositionEnd"],#save-67761479 .composition{fill:#666!important;stroke:#666!important;stroke-width:1;}#save-67761479 [id$="-dependencyStart"],#save-67761479 .dependency{fill:#666!important;stroke:#666!important;stroke-width:1;}#save-67761479 [id$="-dependencyEnd"],#save-67761479 .dependency{fill:#666!important;stroke:#666!important;stroke-width:1;}#save-67761479 [id$="-extensionStart"],#save-67761479 .extension{fill:transparent!important;stroke:#666!important;stroke-width:1;}#save-67761479 [id$="-extensionEnd"],#save-67761479 .extension{fill:transparent!important;stroke:#666!important;stroke-width:1;}#save-67761479 [id$="-aggregationStart"],#save-67761479 .aggregation{fill:transparent!important;stroke:#666!important;stroke-width:1;}#save-67761479 [id$="-aggregationEnd"],#save-67761479 .aggregation{fill:transparent!important;stroke:#666!important;stroke-width:1;}#save-67761479 [id$="-lollipopStart"],#save-67761479 .lollipop{fill:#eee!important;stroke:#666!important;stroke-width:1;}#save-67761479 [id$="-lollipopEnd"],#save-67761479 .lollipop{fill:#eee!important;stroke:#666!important;stroke-width:1;}#save-67761479 .edgeTerminals{font-size:11px;line-height:initial;}#save-67761479 .classTitleText{text-anchor:middle;font-size:18px;fill:#000000;}#save-67761479 .edgeLabel[data-look="neo"]{background-color:white;text-align:center;}#save-67761479 .edgeLabel[data-look="neo"] p{background-color:white;}#save-67761479 .edgeLabel[data-look="neo"] rect{opacity:0.5;background-color:white;fill:white;}#save-67761479 .label-icon{display:inline-block;height:1em;overflow:visible;vertical-align:-0.125em;}#save-67761479 .node .label-icon path{fill:currentColor;stroke:revert;stroke-width:revert;}#save-67761479 .node .neo-node{stroke:#999;}#save-67761479 [data-look="neo"].node rect,#save-67761479 [data-look="neo"].cluster rect,#save-67761479 [data-look="neo"].node polygon{stroke:url(#save-67761479-gradient);filter:drop-shadow( 1px 2px 2px rgba(185,185,185,1));}#save-67761479 [data-look="neo"].node path{stroke:url(#save-67761479-gradient);stroke-width:1px;}#save-67761479 [data-look="neo"].node .outer-path{filter:drop-shadow( 1px 2px 2px rgba(185,185,185,1));}#save-67761479 [data-look="neo"].node .neo-line path{stroke:#999;filter:none;}#save-67761479 [data-look="neo"].node circle{stroke:url(#save-67761479-gradient);filter:drop-shadow( 1px 2px 2px rgba(185,185,185,1));}#save-67761479 [data-look="neo"].node circle .state-start{fill:#000000;}#save-67761479 [data-look="neo"].icon-shape .icon{fill:url(#save-67761479-gradient);filter:drop-shadow( 1px 2px 2px rgba(185,185,185,1));}#save-67761479 [data-look="neo"].icon-shape .icon-neo path{stroke:url(#save-67761479-gradient);filter:drop-shadow( 1px 2px 2px rgba(185,185,185,1));}#save-67761479 :root{--mermaid-font-family:Arial,Helvetica,DejaVu Sans,sans-serif;}</style><g><defs><marker id="save-67761479_class-aggregationStart" class="marker aggregation class" refX="18" refY="7" markerWidth="190" markerHeight="240" orient="auto"><path d="M 18,7 L9,13 L1,7 L9,1 Z"/></marker></defs><defs><marker id="save-67761479_class-aggregationEnd" class="marker aggregation class" refX="1" refY="7" markerWidth="20" markerHeight="28" orient="auto"><path d="M 18,7 L9,13 L1,7 L9,1 Z"/></marker></defs><defs><marker id="save-67761479_class-aggregationStart-margin" class="marker aggregation class" refX="15" refY="7" markerWidth="190" markerHeight="240" orient="auto" markerUnits="userSpaceOnUse"><path d="M 18,7 L9,13 L1,7 L9,1 Z" style="stroke-width: 2;"/></marker></defs><defs><marker id="save-67761479_class-aggregationEnd-margin" class="marker aggregation class" refX="1" refY="7" markerWidth="20" markerHeight="28" orient="auto" markerUnits="userSpaceOnUse"><path d="M 18,7 L9,13 L1,7 L9,1 Z" style="stroke-width: 2;"/></marker></defs><defs><marker id="save-67761479_class-extensionStart" class="marker extension class" refX="18" refY="7" markerWidth="20" markerHeight="28" orient="auto" markerUnits="userSpaceOnUse"><path d="M 1,7 L18,13 V 1 Z"/></marker></defs><defs><marker id="save-67761479_class-extensionEnd" class="marker extension class" refX="1" refY="7" markerWidth="20" markerHeight="28" orient="auto"><path d="M 1,1 V 13 L18,7 Z"/></marker></defs><marker id="save-67761479_class-extensionStart-margin" class="marker extension class" refX="18" refY="7" markerWidth="20" markerHeight="28" orient="auto" markerUnits="userSpaceOnUse" viewBox="0 0 20 14"><polygon points="10,7 18,13 18,1" style="stroke-width: 2; stroke-dasharray: 0;"/></marker><defs><marker id="save-67761479_class-extensionEnd-margin" class="marker extension class" refX="9" refY="7" markerWidth="20" markerHeight="28" orient="auto" markerUnits="userSpaceOnUse" viewBox="0 0 20 14"><polygon points="10,1 10,13 18,7" style="stroke-width: 2; stroke-dasharray: 0;"/></marker></defs><defs><marker id="save-67761479_class-compositionStart" class="marker composition class" refX="18" refY="7" markerWidth="190" markerHeight="240" orient="auto"><path d="M 18,7 L9,13 L1,7 L9,1 Z"/></marker></defs><defs><marker id="save-67761479_class-compositionEnd" class="marker composition class" refX="1" refY="7" markerWidth="20" markerHeight="28" orient="auto"><path d="M 18,7 L9,13 L1,7 L9,1 Z"/></marker></defs><defs><marker id="save-67761479_class-compositionStart-margin" class="marker composition class" refX="15" refY="7" markerWidth="190" markerHeight="240" orient="auto" markerUnits="userSpaceOnUse"><path viewBox="0 0 15 15" d="M 18,7 L9,13 L1,7 L9,1 Z" style="stroke-width: 0;"/></marker></defs><defs><marker id="save-67761479_class-compositionEnd-margin" class="marker composition class" refX="3.5" refY="7" markerWidth="20" markerHeight="28" orient="auto" markerUnits="userSpaceOnUse"><path d="M 18,7 L9,13 L1,7 L9,1 Z" style="stroke-width: 0;"/></marker></defs><defs><marker id="save-67761479_class-dependencyStart" class="marker dependency class" refX="6" refY="7" markerWidth="190" markerHeight="240" orient="auto"><path d="M 5,7 L9,13 L1,7 L9,1 Z"/></marker></defs><defs><marker id="save-67761479_class-dependencyEnd" class="marker dependency class" refX="13" refY="7" markerWidth="20" markerHeight="28" orient="auto"><path d="M 18,7 L9,13 L14,7 L9,1 Z"/></marker></defs><defs><marker id="save-67761479_class-dependencyStart-margin" class="marker dependency class" refX="4" refY="7" markerWidth="190" markerHeight="240" orient="auto" markerUnits="userSpaceOnUse"><path d="M 5,7 L9,13 L1,7 L9,1 Z" style="stroke-width: 0;"/></marker></defs><defs><marker id="save-67761479_class-dependencyEnd-margin" class="marker dependency class" refX="16" refY="7" markerWidth="20" markerHeight="28" orient="auto" markerUnits="userSpaceOnUse"><path d="M 18,7 L9,13 L14,7 L9,1 Z" style="stroke-width: 0;"/></marker></defs><defs><marker id="save-67761479_class-lollipopStart" class="marker lollipop class" refX="13" refY="7" markerWidth="190" markerHeight="240" orient="auto"><circle fill="transparent" cx="7" cy="7" r="6"/></marker></defs><defs><marker id="save-67761479_class-lollipopEnd" class="marker lollipop class" refX="1" refY="7" markerWidth="190" markerHeight="240" orient="auto"><circle fill="transparent" cx="7" cy="7" r="6"/></marker></defs><defs><marker id="save-67761479_class-lollipopStart-margin" class="marker lollipop class" refX="13" refY="7" markerWidth="190" markerHeight="240" orient="auto" markerUnits="userSpaceOnUse"><circle fill="transparent" cx="7" cy="7" r="6" stroke-width="2"/></marker></defs><defs><marker id="save-67761479_class-lollipopEnd-margin" class="marker lollipop class" refX="1" refY="7" markerWidth="190" markerHeight="240" orient="auto" markerUnits="userSpaceOnUse"><circle fill="transparent" cx="7" cy="7" r="6" stroke-width="2"/></marker></defs><g class="root"><g class="clusters"/><g class="edgePaths"><path d="M103.283,134L103.283,138.167C103.283,142.333,103.283,150.667,116.814,162.247C130.345,173.827,157.406,188.654,170.937,196.068L184.468,203.482" id="save-67761479-id_MenuDay_Dish_1" class="edge-thickness-normal edge-pattern-solid relation" style=";;;" data-edge="true" data-et="edge" data-id="id_MenuDay_Dish_1" data-points="W3sieCI6MTAzLjI4MzIwMzEyNSwieSI6MTM0fSx7IngiOjEwMy4yODMyMDMxMjUsInkiOjE1OX0seyJ4IjoxODkuNzI5NDkyMTg3NSwieSI6MjA2LjM2NDU1NjczODAzNjg3fV0=" data-look="classic" marker-end="url(#save-67761479_class-dependencyEnd)"/><path d="M219.179,261L219.179,265.167C219.179,269.333,219.179,277.667,219.179,285C219.179,292.333,219.179,298.667,219.179,301.833L219.179,305" id="save-67761479-id_Dish_Batch_2" class="edge-thickness-normal edge-pattern-solid relation" style=";;;" data-edge="true" data-et="edge" data-id="id_Dish_Batch_2" data-points="W3sieCI6MjE5LjE3ODcxMDkzNzUsInkiOjI2MX0seyJ4IjoyMTkuMTc4NzEwOTM3NSwieSI6Mjg2fSx7IngiOjIxOS4xNzg3MTA5Mzc1LCJ5IjozMTF9XQ==" data-look="classic" marker-end="url(#save-67761479_class-dependencyEnd)"/><path d="M335.074,134L335.074,138.167C335.074,142.333,335.074,150.667,321.543,162.247C308.013,173.827,280.951,188.654,267.421,196.068L253.89,203.482" id="save-67761479-id_Order_Dish_3" class="edge-thickness-normal edge-pattern-solid relation" style=";;;" data-edge="true" data-et="edge" data-id="id_Order_Dish_3" data-points="W3sieCI6MzM1LjA3NDIxODc1LCJ5IjoxMzR9LHsieCI6MzM1LjA3NDIxODc1LCJ5IjoxNTl9LHsieCI6MjQ4LjYyNzkyOTY4NzUsInkiOjIwNi4zNjQ1NTY3MzgwMzY4N31d" data-look="classic" marker-end="url(#save-67761479_class-dependencyEnd)"/></g><g class="edgeLabels"><g class="edgeLabel"><g class="label" data-id="id_MenuDay_Dish_1" transform="translate(0, 0)"><text y="-10.1" text-anchor="middle"><tspan class="text-outer-tspan row" x="0" y="-0.1em" dy="1.1em" text-anchor="middle"/></text></g></g><g><rect class="background" style="stroke: none"/></g><g class="edgeLabel"><g class="label" data-id="id_Dish_Batch_2" transform="translate(0, 0)"><text y="-10.1" text-anchor="middle"><tspan class="text-outer-tspan row" x="0" y="-0.1em" dy="1.1em" text-anchor="middle"/></text></g></g><g><rect class="background" style="stroke: none"/></g><g class="edgeLabel"><g class="label" data-id="id_Order_Dish_3" transform="translate(0, 0)"><text y="-10.1" text-anchor="middle"><tspan class="text-outer-tspan row" x="0" y="-0.1em" dy="1.1em" text-anchor="middle"/></text></g></g><g><rect class="background" style="stroke: none"/></g><g class="edgeTerminals" transform="translate(93.27815191195096, 153.1366812823129)"><g class="inner" transform="translate(0, -7)"><g><rect class="background" style="stroke: none"/><text y="-10.1" text-anchor="middle"><tspan class="text-outer-tspan row" x="0" y="-0.1em" dy="1.1em" text-anchor="middle"><tspan font-style="normal" class="text-inner-tspan" font-weight="normal">1</tspan></tspan></text></g></g></g><g class="edgeTerminals" transform="translate(204.17871046875, 278.4999995982143)"><g class="inner" transform="translate(0, -7)"><g><rect class="background" style="stroke: none"/><text y="-10.1" text-anchor="middle"><tspan class="text-outer-tspan row" x="0" y="-0.1em" dy="1.1em" text-anchor="middle"><tspan font-style="normal" class="text-inner-tspan" font-weight="normal">1</tspan></tspan></text></g></g></g><g class="edgeTerminals" transform="translate(316.29926996959125, 144.6684078845612)"><g class="inner" transform="translate(-0.359375, -7)"><g><rect class="background" style="stroke: none"/><text y="-10.1" text-anchor="middle"><tspan class="text-outer-tspan row" x="0" y="-0.1em" dy="1.1em" text-anchor="middle"><tspan font-style="normal" class="text-inner-tspan" font-weight="normal">*</tspan></tspan></text></g></g></g><g class="edgeTerminals" transform="translate(176.5898067831599, 179.80080181845977)"><g class="inner" transform="translate(0, -7)"/><g><rect class="background" style="stroke: none"/><text y="-10.1" text-anchor="middle"><tspan class="text-outer-tspan row" x="0" y="-0.1em" dy="1.1em" text-anchor="middle"><tspan font-style="normal" class="text-inner-tspan" font-weight="normal">3</tspan></tspan></text></g></g><g class="edgeTerminals" transform="translate(229.17871046875, 288.4999995982143)"><g class="inner" transform="translate(0, -7)"/><g><rect class="background" style="stroke: none"/><text y="-10.1" text-anchor="middle"><tspan class="text-outer-tspan row" x="0" y="-0.1em" dy="1.1em" text-anchor="middle"><tspan font-style="normal" class="text-inner-tspan" font-weight="normal">1</tspan></tspan></text></g></g><g class="edgeTerminals" transform="translate(266.18288587178614, 206.1104947340413)"><g class="inner" transform="translate(0, -7)"/><g><rect class="background" style="stroke: none"/><text y="-10.1" text-anchor="middle"><tspan class="text-outer-tspan row" x="0" y="-0.1em" dy="1.1em" text-anchor="middle"><tspan font-style="normal" class="text-inner-tspan" font-weight="normal">1</tspan></tspan></text></g></g></g><g class="nodes"><g class="node default" id="save-67761479-classId-MenuDay-0" data-look="classic" transform="translate(103.283203125, 71)"><g class="basic label-container outer-path"><path d="M-95.283203125 -63 L95.283203125 -63 L95.283203125 63 L-95.283203125 63" stroke="none" stroke-width="0" fill="#eee" style=""/><path d="M-95.283203125 -63 C-44.804539746257454 -63, 5.674123632485092 -63, 95.283203125 -63 M-95.283203125 -63 C-48.413900957180466 -63, -1.5445987893609328 -63, 95.283203125 -63 M95.283203125 -63 C95.283203125 -35.166932785281396, 95.283203125 -7.333865570562793, 95.283203125 63 M95.283203125 -63 C95.283203125 -18.903235085466108, 95.283203125 25.193529829067785, 95.283203125 63 M95.283203125 63 C44.89910611049394 63, -5.484990904012122 63, -95.283203125 63 M95.283203125 63 C37.10988100339688 63, -21.063441118206242 63, -95.283203125 63 M-95.283203125 63 C-95.283203125 18.836185802620406, -95.283203125 -25.327628394759188, -95.283203125 -63 M-95.283203125 63 C-95.283203125 30.165614891462752, -95.283203125 -2.6687702170744956, -95.283203125 -63" stroke="#999" stroke-width="1.3" fill="none" stroke-dasharray="0 0" style=""/></g><g class="annotation-group text" transform="translate(0, -43)"/><g class="label-group text" transform="translate(-35.61328125, -43)"><g class="label" style="font-weight: bolder" transform="translate(0,-8.5)"><g><rect class="background" style="stroke: none"/><text y="-10.1" style=""><tspan class="text-outer-tspan row" x="0" y="-0.1em" dy="1.1em" font-weight=""><tspan font-style="normal" class="text-inner-tspan" font-weight="">MenuDay</tspan></tspan></text></g></g></g><g class="members-group text" transform="translate(-83.283203125, -2)"><g class="label" style="" transform="translate(0,-8.5)"><g><rect class="background" style="stroke: none"/><text y="-10.1" style=""><tspan class="text-outer-tspan row" x="0" y="-0.1em" dy="1.1em"><tspan font-style="normal" class="text-inner-tspan" font-weight="normal">+LocalDate</tspan><tspan font-style="normal" class="text-inner-tspan" font-weight="normal"> date</tspan></tspan></text></g></g><g class="label" style="" transform="translate(0,11.5)"><g><rect class="background" style="stroke: none"/><text y="-10.1" style=""><tspan class="text-outer-tspan row" x="0" y="-0.1em" dy="1.1em"><tspan font-style="normal" class="text-inner-tspan" font-weight="normal">+LocalTime</tspan><tspan font-style="normal" class="text-inner-tspan" font-weight="normal"> cutOff</tspan></tspan></text></g></g></g><g class="methods-group text" transform="translate(-83.283203125, 59)"/><g class="divider" style=""><path d="M-95.283203125 -22 C-37.27145918515327 -21.99969558252642, 20.740284754693462 -21.999391165052838, 95.283203125 -21.999 M-95.283203125 -22 C-41.35980521934217 -21.999717036181945, 12.563592686315658 -21.999434072363886, 95.283203125 -21.999" stroke="#999" stroke-width="1.3" fill="none" stroke-dasharray="0 0" style=""/></g><g class="divider" style=""><path d="M-95.283203125 39 C-25.86624612817296 39.000364266495666, 43.55071086865408 39.00072853299134, 95.283203125 39.001 M-95.283203125 39 C-53.8711394396127 39.000217310409006, -12.459075754225395 39.00043462081801, 95.283203125 39.001" stroke="#999" stroke-width="1.3" fill="none" stroke-dasharray="0 0" style=""/></g></g><g class="node default" id="save-67761479-classId-Dish-1" data-look="classic" transform="translate(219.1787109375, 222.5)"><g class="basic label-container outer-path"><path d="M-29.44921875 -38.5 L29.44921875 -38.5 L29.44921875 38.5 L-29.44921875 38.5" stroke="none" stroke-width="0" fill="#eee" style=""/><path d="M-29.44921875 -38.5 C-8.426000742381905 -38.5, 12.59721726523619 -38.5, 29.44921875 -38.5 M-29.44921875 -38.5 C-11.929937256741951 -38.5, 5.589344236516098 -38.5, 29.44921875 -38.5 M29.44921875 -38.5 C29.44921875 -17.03517964386211, 29.44921875 4.429640712275777, 29.44921875 38.5 M29.44921875 -38.5 C29.44921875 -16.32788763972528, 29.44921875 5.844224720549441, 29.44921875 38.5 M29.44921875 38.5 C11.956942246993812 38.5, -5.535334256012376 38.5, -29.44921875 38.5 M29.44921875 38.5 C7.311515342347061 38.5, -14.826188065305878 38.5, -29.44921875 38.5 M-29.44921875 38.5 C-29.44921875 11.96064340939185, -29.44921875 -14.578713181216301, -29.44921875 -38.5 M-29.44921875 38.5 C-29.44921875 22.546952587737955, -29.44921875 6.593905175475914, -29.44921875 -38.5" stroke="#999" stroke-width="1.3" fill="none" stroke-dasharray="0 0" style=""/></g><g class="annotation-group text" transform="translate(0, -18.5)"/><g class="label-group text" transform="translate(-17.44921875, -18.5)"><g class="label" style="font-weight: bolder" transform="translate(0,-8.5)"><g><rect class="background" style="stroke: none"/><text y="-10.1" style=""><tspan class="text-outer-tspan row" x="0" y="-0.1em" dy="1.1em" font-weight=""><tspan font-style="normal" class="text-inner-tspan" font-weight="">Dish</tspan></tspan></text></g></g></g><g class="members-group text" transform="translate(-17.44921875, 22.5)"/><g class="methods-group text" transform="translate(-17.44921875, 52.5)"/><g class="divider" style=""><path d="M-29.44921875 2.5 C-12.166324696931927 2.500293435527098, 5.1165693561361465 2.500586871054196, 29.44921875 2.501 M-29.44921875 2.5 C-6.305097381398419 2.5003929496664252, 16.839023987203163 2.500785899332851, 29.44921875 2.501" stroke="#999" stroke-width="1.3" fill="none" stroke-dasharray="0 0" style=""/></g><g class="divider" style=""><path d="M-29.44921875 20.5 C-9.455342217523423 20.500339463615354, 10.538534314953154 20.50067892723071, 29.44921875 20.501 M-29.44921875 20.5 C-14.391315621001763 20.500255658787705, 0.6665875079964749 20.500511317575413, 29.44921875 20.501" stroke="#999" stroke-width="1.3" fill="none" stroke-dasharray="0 0" style=""/></g></g><g class="node default" id="save-67761479-classId-Batch-2" data-look="classic" transform="translate(219.1787109375, 384)"><g class="basic label-container outer-path"><path d="M-101.267578125 -73 L101.267578125 -73 L101.267578125 73 L-101.267578125 73" stroke="none" stroke-width="0" fill="#eee" style=""/><path d="M-101.267578125 -73 C-37.963059442091776 -73, 25.341459240816448 -73, 101.267578125 -73 M-101.267578125 -73 C-38.81154230075487 -73, 23.644493523490254 -73, 101.267578125 -73 M101.267578125 -73 C101.267578125 -27.91465795271136, 101.267578125 17.170684094577283, 101.267578125 73 M101.267578125 -73 C101.267578125 -25.876684597315474, 101.267578125 21.24663080536905, 101.267578125 73 M101.267578125 73 C44.72781387927832 73, -11.811950366443355 73, -101.267578125 73 M101.267578125 73 C48.12272546534675 73, -5.022127194306506 73, -101.267578125 73 M-101.267578125 73 C-101.267578125 37.30353392956108, -101.267578125 1.6070678591221537, -101.267578125 -73 M-101.267578125 73 C-101.267578125 42.664360647911636, -101.267578125 12.328721295823271, -101.267578125 -73" stroke="#999" stroke-width="1.3" fill="none" stroke-dasharray="0 0" style=""/></g><g class="annotation-group text" transform="translate(0, -53)"/><g class="label-group text" transform="translate(-22.33984375, -53)"><g class="label" style="font-weight: bolder" transform="translate(0,-8.5)"><g><rect class="background" style="stroke: none"/><text y="-10.1" style=""><tspan class="text-outer-tspan row" x="0" y="-0.1em" dy="1.1em" font-weight=""><tspan font-style="normal" class="text-inner-tspan" font-weight="">Batch</tspan></tspan></text></g></g></g><g class="members-group text" transform="translate(-89.267578125, -12)"><g class="label" style="" transform="translate(0,-8.5)"><g><rect class="background" style="stroke: none"/><text y="-10.1" style=""><tspan class="text-outer-tspan row" x="0" y="-0.1em" dy="1.1em"><tspan font-style="normal" class="text-inner-tspan" font-weight="normal">+int</tspan><tspan font-style="normal" class="text-inner-tspan" font-weight="normal"> portionsPlanned</tspan></tspan></text></g></g><g class="label" style="" transform="translate(0,11.5)"><g><rect class="background" style="stroke: none"/><text y="-10.1" style=""><tspan class="text-outer-tspan row" x="0" y="-0.1em" dy="1.1em"><tspan font-style="normal" class="text-inner-tspan" font-weight="normal">+int</tspan><tspan font-style="normal" class="text-inner-tspan" font-weight="normal"> portionsReserved</tspan></tspan></text></g></g><g class="label" style="" transform="translate(0,31.5)"><g><rect class="background" style="stroke: none"/><text y="-10.1" style=""><tspan class="text-outer-tspan row" x="0" y="-0.1em" dy="1.1em"><tspan font-style="normal" class="text-inner-tspan" font-weight="normal">+boolean</tspan><tspan font-style="normal" class="text-inner-tspan" font-weight="normal"> locked</tspan></tspan></text></g></g></g><g class="methods-group text" transform="translate(-89.267578125, 69)"/><g class="divider" style=""><path d="M-101.267578125 -32 C-22.19638789794601 -31.999609592765566, 56.87480232910798 -31.999219185531132, 101.267578125 -31.999 M-101.267578125 -32 C-22.07346038969105 -31.999608985821514, 57.1206573456179 -31.99921797164303, 101.267578125 -31.999" stroke="#999" stroke-width="1.3" fill="none" stroke-dasharray="0 0" style=""/></g><g class="divider" style=""><path d="M-101.267578125 49 C-31.10750807650534 49.00034640934121, 39.05256197198932 49.00069281868242, 101.267578125 49.001 M-101.267578125 49 C-57.37793476591004 49.000216701357786, -13.488291406820082 49.00043340271557, 101.267578125 49.001" stroke="#999" stroke-width="1.3" fill="none" stroke-dasharray="0 0" style=""/></g></g><g class="node default" id="save-67761479-classId-Order-3" data-look="classic" transform="translate(335.07421875, 71)"><g class="basic label-container outer-path"><path d="M-86.5078125 -63 L86.5078125 -63 L86.5078125 63 L-86.5078125 63" stroke="none" stroke-width="0" fill="#eee" style=""/><path d="M-86.5078125 -63 C-34.44607670692238 -63, 17.615659086155233 -63, 86.5078125 -63 M-86.5078125 -63 C-38.162913339960966 -63, 10.181985820078069 -63, 86.5078125 -63 M86.5078125 -63 C86.5078125 -36.94071049546805, 86.5078125 -10.8814209909361, 86.5078125 63 M86.5078125 -63 C86.5078125 -15.170937752885642, 86.5078125 32.658124494228716, 86.5078125 63 M86.5078125 63 C51.11691493746823 63, 15.726017374936461 63, -86.5078125 63 M86.5078125 63 C23.430330047429223 63, -39.647152405141554 63, -86.5078125 63 M-86.5078125 63 C-86.5078125 30.97322706495806, -86.5078125 -1.0535458700838802, -86.5078125 -63 M-86.5078125 63 C-86.5078125 33.751497136203824, -86.5078125 4.502994272407655, -86.5078125 -63" stroke="#999" stroke-width="1.3" fill="none" stroke-dasharray="0 0" style=""/></g><g class="annotation-group text" transform="translate(0, -43)"/><g class="label-group text" transform="translate(-22.171875, -43)"><g class="label" style="font-weight: bolder" transform="translate(0,-8.5)"><g><rect class="background" style="stroke: none"/><text y="-10.1" style=""><tspan class="text-outer-tspan row" x="0" y="-0.1em" dy="1.1em" font-weight=""><tspan font-style="normal" class="text-inner-tspan" font-weight="">Order</tspan></tspan></text></g></g></g><g class="members-group text" transform="translate(-74.5078125, -2)"><g class="label" style="" transform="translate(0,-8.5)"><g><rect class="background" style="stroke: none"/><text y="-10.1" style=""><tspan class="text-outer-tspan row" x="0" y="-0.1em" dy="1.1em"><tspan font-style="normal" class="text-inner-tspan" font-weight="normal">+int</tspan><tspan font-style="normal" class="text-inner-tspan" font-weight="normal"> orderNumber</tspan></tspan></text></g></g><g class="label" style="" transform="translate(0,11.5)"><g><rect class="background" style="stroke: none"/><text y="-10.1" style=""><tspan class="text-outer-tspan row" x="0" y="-0.1em" dy="1.1em"><tspan font-style="normal" class="text-inner-tspan" font-weight="normal">+OrderState</tspan><tspan font-style="normal" class="text-inner-tspan" font-weight="normal"> state</tspan></tspan></text></g></g></g><g class="methods-group text" transform="translate(-74.5078125, 59)"/><g class="divider" style=""><path d="M-86.5078125 -22 C-37.853228587503274 -21.999718785029316, 10.801355324993452 -21.999437570058628, 86.5078125 -21.999 M-86.5078125 -22 C-37.251743224814405 -21.9997153085493, 12.00432605037119 -21.999430617098596, 86.5078125 -21.999" stroke="#999" stroke-width="1.3" fill="none" stroke-dasharray="0 0" style=""/></g><g class="divider" style=""><path d="M-86.5078125 39 C-32.22611177277996 39.000313738719996, 22.055588954440083 39.00062747744, 86.5078125 39.001 M-86.5078125 39 C-36.64769294807456 39.00028818275547, 13.212426603850886 39.00057636551094, 86.5078125 39.001" stroke="#999" stroke-width="1.3" fill="none" stroke-dasharray="0 0" style=""/></g></g></g></g></g><defs><filter id="save-67761479-drop-shadow" height="130%" width="130%"><feDropShadow dx="4" dy="4" stdDeviation="0" flood-opacity="0.06" flood-color="#000000"/></filter></defs><defs><filter id="save-67761479-drop-shadow-small" height="150%" width="150%"><feDropShadow dx="2" dy="2" stdDeviation="0" flood-opacity="0.06" flood-color="#000000"/></filter></defs><linearGradient id="save-67761479-gradient" gradientUnits="objectBoundingBox" x1="0%" y1="0%" x2="100%" y2="0%"><stop offset="0%" stop-color="hsl(0, 0%, 83.3333333333%)" stop-opacity="1"/><stop offset="100%" stop-color="hsl(0, 0%, 88.9215686275%)" stop-opacity="1"/></linearGradient></svg>